<?xml version="1.0" encoding="UTF-8" standalone="no"?>
<svg
   xmlns:dc="http://purl.org/dc/elements/1.1/"
   xmlns:cc="http://creativecommons.org/ns#"
   xmlns:rdf="http://www.w3.org/1999/02/22-rdf-syntax-ns#"
   xmlns:svg="http://www.w3.org/2000/svg"
   xmlns="http://www.w3.org/2000/svg"
   xmlns:sodipodi="http://sodipodi.sourceforge.net/DTD/sodipodi-0.dtd"
   xmlns:inkscape="http://www.inkscape.org/namespaces/inkscape"
   width="295.74557mm"
   height="91.374458mm"
   viewBox="0 0 295.74557 91.374458"
   version="1.1"
   id="svg8"
   inkscape:version="1.0.2-2 (e86c870879, 2021-01-15)"
   sodipodi:docname="logo.svg">
  <defs
     id="defs2" />
  <sodipodi:namedview
     id="base"
     pagecolor="#ffffff"
     bordercolor="#666666"
     borderopacity="1.0"
     inkscape:pageopacity="0.0"
     inkscape:pageshadow="2"
     inkscape:zoom="0.98994949"
     inkscape:cx="482.42952"
     inkscape:cy="316.06777"
     inkscape:document-units="mm"
     inkscape:current-layer="layer1"
     inkscape:document-rotation="0"
     showgrid="false"
     fit-margin-top="0.5"
     fit-margin-left="0.5"
     fit-margin-right="0.5"
     fit-margin-bottom="0.5"
     inkscape:window-width="2560"
     inkscape:window-height="1377"
     inkscape:window-x="1912"
     inkscape:window-y="-8"
     inkscape:window-maximized="1" />
  <metadata
     id="metadata5">
    <rdf:RDF>
      <cc:Work
         rdf:about="">
        <dc:format>image/svg+xml</dc:format>
        <dc:type
           rdf:resource="http://purl.org/dc/dcmitype/StillImage" />
        <dc:title></dc:title>
      </cc:Work>
    </rdf:RDF>
  </metadata>
  <g
     inkscape:label="Layer 1"
     inkscape:groupmode="layer"
     id="layer1"
     transform="translate(-4.3203862,-5.6285131)">
    <path
       d="m 57.887358,26.230243 2.207527,-0.892608 C 61.966484,24.579399 62.58075,23.398853 61.92809,21.7864 61.189049,19.953195 59.067907,19.74204 55.593454,21.152936 l -3.637619,1.478082 -8.474972,-5.086904 2.601037,-1.055773 c 1.737227,-0.700649 2.274711,-1.861999 1.63165,-3.464854 -0.748639,-1.842803 -2.322698,-2.255514 -4.750976,-1.276525 l -5.307658,2.159535 C 28.172158,8.1285413 22.624553,5.5754913 21.021698,6.2281503 c -0.739041,0.307134 -1.430092,0.940598 -2.053958,1.900391 -0.623866,0.959793 -0.78703,1.785216 -0.50869,2.4666687 0.278339,0.691051 1.919586,2.092349 4.933337,4.213492 3.013751,2.121144 7.879904,6.382626 14.588859,12.794045 6.708957,6.41142 10.394563,10.442552 11.066417,12.083797 0.422311,1.046175 -0.911803,2.265113 -4.021533,3.647216 -10.317779,4.261483 -17.545024,7.764727 -21.662537,10.509741 -0.700649,-0.239952 -2.668225,-1.382107 -5.873935,-3.426467 -3.215308,-2.034761 -5.317255,-3.167317 -6.296244,-3.388069 -0.998185,-0.230351 -2.4666693,0.048 -4.4342453,0.854217 -1.0461744,0.422305 -1.6988339,0.863816 -1.9387825,1.29572 0.5182887,1.276521 3.9351525,5.250069 10.2697888,11.920628 -0.182361,8.47497 0.134371,13.70585 0.940597,15.70222 0.479897,0.14397 1.247732,0.01 2.293906,-0.41271 1.967576,-0.80623 3.215308,-1.61246 3.752792,-2.43788 0.547083,-0.83502 1.266928,-3.10973 2.159535,-6.82413 0.892608,-3.7144 1.506876,-5.92192 1.842803,-6.58418 4.827761,-1.00778 10.193006,-2.67782 16.143723,-5.01012 5.941121,-2.322696 9.386778,-3.532038 10.336976,-3.589625 0.950193,-0.05761 1.554866,0.220751 1.804414,0.844617 0.652656,1.612459 0.806225,7.054468 0.479894,16.345278 -0.326329,9.2908 -0.844618,15.75981 -1.526071,19.36863 -0.681453,3.61842 -0.883011,5.76836 -0.604672,6.45941 0.278339,0.68145 0.969391,1.14215 2.082753,1.3821 1.113362,0.23994 2.044362,0.21115 2.793001,-0.096 1.612452,-0.65266 3.800781,-6.33464 6.593779,-17.04593 l 5.307657,-2.15954 c 2.428278,-0.98858 3.263296,-2.38988 2.514657,-4.22308 -0.652657,-1.61246 -1.842803,-2.05396 -3.580029,-1.35331 l -2.601038,1.05577 2.533856,-9.54995 3.637613,-1.47807 c 3.474453,-1.41091 4.837358,-3.04255 4.098318,-4.87576 -0.652657,-1.61245 -1.919584,-2.03475 -3.781585,-1.27652 l -2.207526,0.90221 4.539823,-13.917001 11.363955,-4.645401 c 9.722702,-3.944751 13.936201,-7.543977 12.611691,-10.788077 -0.51829,-1.276526 -2.898588,-1.53567 -7.150465,-0.758238 -4.242285,0.777433 -7.313625,1.545268 -9.21402,2.313103 l -11.402345,4.626203 z"
       id="path841"
       style="fill:#6356e0;fill-opacity:1;stroke-width:0.0959793" />
  </g>
  <g
     inkscape:groupmode="layer"
     id="layer2"
     inkscape:label="Layer 2"
     style="display:none">
    <text
       xml:space="preserve"
       style="font-style:normal;font-variant:normal;font-weight:normal;font-stretch:normal;font-size:50.8px;line-height:1.25;font-family:'Segoe UI';-inkscape-font-specification:'Segoe UI';fill:#6356e0;fill-opacity:1;stroke:none;stroke-width:0.264583"
       x="105.83829"
       y="63.943615"
       id="text851"><tspan
         sodipodi:role="line"
         id="tspan849"
         x="105.83829"
         y="63.943615"
         style="font-style:normal;font-variant:normal;font-weight:normal;font-stretch:normal;font-size:50.8px;font-family:'Segoe UI';-inkscape-font-specification:'Segoe UI';fill:#6356e0;fill-opacity:1;stroke-width:0.264583">Air 3550</tspan></text>
  </g>
  <g
     inkscape:groupmode="layer"
     id="g927"
     inkscape:label="Path text"
     style="display:inline">
    <g
       aria-label="Air 3550"
       id="text925"
       style="font-style:normal;font-variant:normal;font-weight:normal;font-stretch:normal;font-size:50.8px;line-height:1.25;font-family:'Segoe UI';-inkscape-font-specification:'Segoe UI';fill:#6356e0;fill-opacity:1;stroke:none;stroke-width:0.264583">
      <path
         d="m 138.03477,63.943615 h -4.61367 l -3.77031,-9.971484 h -15.08125 l -3.54707,9.971484 h -4.63848 l 13.64258,-35.569921 h 4.31601 z m -9.74824,-13.716992 -5.58106,-15.155664 q -0.27285,-0.74414 -0.5457,-2.38125 h -0.0992 q -0.24804,1.513086 -0.57051,2.38125 l -5.53144,15.155664 z"
         style="font-style:normal;font-variant:normal;font-weight:normal;font-stretch:normal;font-size:50.8px;font-family:'Segoe UI';-inkscape-font-specification:'Segoe UI';fill:#6356e0;fill-opacity:1;stroke-width:0.264583"
         id="path929" />
      <path
         d="m 144.80645,32.094397 q -1.09141,0 -1.86035,-0.744141 -0.76895,-0.744141 -0.76895,-1.885156 0,-1.141016 0.76895,-1.885156 0.76894,-0.768946 1.86035,-0.768946 1.11621,0 1.88516,0.768946 0.79375,0.74414 0.79375,1.885156 0,1.091406 -0.79375,1.860351 -0.76895,0.768946 -1.88516,0.768946 z m 1.98437,31.849218 h -4.06796 v -25.4 h 4.06796 z"
         style="font-style:normal;font-variant:normal;font-weight:normal;font-stretch:normal;font-size:50.8px;font-family:'Segoe UI';-inkscape-font-specification:'Segoe UI';fill:#6356e0;fill-opacity:1;stroke-width:0.264583"
         id="path931" />
      <path
         d="m 168.27168,42.661193 q -1.0666,-0.818554 -3.07578,-0.818554 -2.60449,0 -4.36562,2.455664 -1.73633,2.455664 -1.73633,6.697265 v 12.948047 h -4.06797 v -25.4 h 4.06797 v 5.233789 h 0.0992 q 0.86816,-2.678906 2.6541,-4.167187 1.78594,-1.513086 3.99355,-1.513086 1.5875,0 2.43086,0.347266 z"
         style="font-style:normal;font-variant:normal;font-weight:normal;font-stretch:normal;font-size:50.8px;font-family:'Segoe UI';-inkscape-font-specification:'Segoe UI';fill:#6356e0;fill-opacity:1;stroke-width:0.264583"
         id="path933" />
      <path
         d="m 206.12364,53.872912 q 0,2.406055 -0.91777,4.39043 -0.89297,1.95957 -2.55489,3.373437 -1.63711,1.389063 -3.94394,2.158008 -2.30684,0.768945 -5.08496,0.768945 -5.08496,0 -8.08633,-1.934765 v -4.365625 q 3.59668,2.827734 8.23515,2.827734 1.86036,0 3.34864,-0.471289 1.51308,-0.471289 2.57968,-1.364258 1.09141,-0.892969 1.66192,-2.158008 0.59531,-1.265039 0.59531,-2.852539 0,-6.970117 -9.92187,-6.970117 h -2.95176 v -3.447851 h 2.80293 q 8.78086,0 8.78086,-6.548438 0,-6.052343 -6.69727,-6.052343 -3.77031,0 -7.06933,2.530078 v -3.943946 q 3.39824,-2.033984 8.08632,-2.033984 2.23243,0 4.04317,0.620117 1.81074,0.620117 3.10058,1.736328 1.28985,1.116211 1.98438,2.678907 0.71933,1.562695 0.71933,3.447851 0,7.019727 -7.09414,9.028906 v 0.09922 q 1.81075,0.198437 3.34864,0.892969 1.53789,0.669726 2.6541,1.761133 1.11621,1.091406 1.73633,2.579687 0.64492,1.463477 0.64492,3.249414 z"
         style="font-style:normal;font-variant:normal;font-weight:normal;font-stretch:normal;font-size:50.8px;font-family:'Segoe UI';-inkscape-font-specification:'Segoe UI';fill:#6356e0;fill-opacity:1;stroke-width:0.264583"
         id="path935" />
      <path
         d="m 233.90488,53.079162 q 0,2.604492 -0.89297,4.712891 -0.89297,2.108398 -2.55488,3.621484 -1.63711,1.513086 -3.96875,2.33164 -2.33164,0.818555 -5.18418,0.818555 -4.96094,0 -7.36699,-1.488281 v -4.316016 q 3.62148,2.331641 7.4166,2.331641 1.93477,0 3.47266,-0.570508 1.56269,-0.570508 2.6541,-1.5875 1.0914,-1.016992 1.66191,-2.455664 0.59532,-1.438672 0.59532,-3.150195 0,-3.472656 -2.33165,-5.432227 -2.33164,-1.984375 -6.77168,-1.984375 -0.71933,0 -1.51308,0.02481 -0.79375,0.02481 -1.5875,0.07441 -0.79375,0.02481 -1.5627,0.07441 -0.74414,0.04961 -1.36425,0.124024 l 1.21543,-17.83457 h 16.4455 v 3.671093 h -12.92324 l -0.71933,10.442774 q 0.79375,-0.04961 1.68671,-0.07441 0.89297,-0.04961 1.5875,-0.04961 2.82774,0 5.06016,0.744141 2.23242,0.74414 3.77031,2.133203 1.5627,1.364258 2.35645,3.373437 0.81855,1.984375 0.81855,4.464844 z"
         style="font-style:normal;font-variant:normal;font-weight:normal;font-stretch:normal;font-size:50.8px;font-family:'Segoe UI';-inkscape-font-specification:'Segoe UI';fill:#6356e0;fill-opacity:1;stroke-width:0.264583"
         id="path937" />
      <path
         d="m 261.28925,53.079162 q 0,2.604492 -0.89297,4.712891 -0.89297,2.108398 -2.55488,3.621484 -1.63711,1.513086 -3.96875,2.33164 -2.33164,0.818555 -5.18418,0.818555 -4.96094,0 -7.36699,-1.488281 v -4.316016 q 3.62148,2.331641 7.4166,2.331641 1.93477,0 3.47266,-0.570508 1.56269,-0.570508 2.6541,-1.5875 1.0914,-1.016992 1.66191,-2.455664 0.59531,-1.438672 0.59531,-3.150195 0,-3.472656 -2.33164,-5.432227 -2.33164,-1.984375 -6.77168,-1.984375 -0.71933,0 -1.51308,0.02481 -0.79375,0.02481 -1.5875,0.07441 -0.79375,0.02481 -1.5627,0.07441 -0.74414,0.04961 -1.36426,0.124024 l 1.21543,-17.83457 h 16.44551 v 3.671093 H 246.7289 l -0.71934,10.442774 q 0.79375,-0.04961 1.68672,-0.07441 0.89297,-0.04961 1.5875,-0.04961 2.82774,0 5.06016,0.744141 2.23242,0.74414 3.77031,2.133203 1.5627,1.364258 2.35645,3.373437 0.81855,1.984375 0.81855,4.464844 z"
         style="font-style:normal;font-variant:normal;font-weight:normal;font-stretch:normal;font-size:50.8px;font-family:'Segoe UI';-inkscape-font-specification:'Segoe UI';fill:#6356e0;fill-opacity:1;stroke-width:0.264583"
         id="path939" />
      <path
         d="m 289.93867,46.009826 q 0,4.464844 -0.81855,7.912695 -0.79375,3.447852 -2.33164,5.829102 -1.51309,2.356445 -3.74551,3.596679 -2.20762,1.21543 -5.03535,1.21543 -2.67891,0 -4.7873,-1.16582 -2.0836,-1.190625 -3.52227,-3.447852 -1.43867,-2.257226 -2.18281,-5.531445 -0.74414,-3.299023 -0.74414,-7.540625 0,-4.663281 0.76894,-8.235156 0.79375,-3.571875 2.30684,-5.97793 1.51308,-2.430859 3.74551,-3.646289 2.25722,-1.240234 5.15937,-1.240234 11.18691,0 11.18691,18.231445 z m -4.16718,0.396875 q 0,-15.180468 -7.21817,-15.180468 -7.61504,0 -7.61504,15.45332 0,14.411523 7.46622,14.411523 7.36699,0 7.36699,-14.684375 z"
         style="font-style:normal;font-variant:normal;font-weight:normal;font-stretch:normal;font-size:50.8px;font-family:'Segoe UI';-inkscape-font-specification:'Segoe UI';fill:#6356e0;fill-opacity:1;stroke-width:0.264583"
         id="path941" />
    </g>
  </g>
</svg>
