<?xml version="1.0" encoding="UTF-8" standalone="no"?>
<svg
   xmlns:dc="http://purl.org/dc/elements/1.1/"
   xmlns:cc="http://creativecommons.org/ns#"
   xmlns:rdf="http://www.w3.org/1999/02/22-rdf-syntax-ns#"
   xmlns:svg="http://www.w3.org/2000/svg"
   xmlns="http://www.w3.org/2000/svg"
   xmlns:sodipodi="http://sodipodi.sourceforge.net/DTD/sodipodi-0.dtd"
   xmlns:inkscape="http://www.inkscape.org/namespaces/inkscape"
   width="295.74557mm"
   height="91.374458mm"
   viewBox="0 0 295.74557 91.374458"
   version="1.1"
   id="svg8"
   inkscape:version="1.0.2-2 (e86c870879, 2021-01-15)"
   sodipodi:docname="logo.svg">
  <defs
     id="defs2" />
  <sodipodi:namedview
     id="base"
     pagecolor="#ffffff"
     bordercolor="#666666"
     borderopacity="1.0"
     inkscape:pageopacity="0.0"
     inkscape:pageshadow="2"
     inkscape:zoom="0.98994949"
     inkscape:cx="755.91488"
     inkscape:cy="401.46096"
     inkscape:document-units="mm"
     inkscape:current-layer="layer1"
     inkscape:document-rotation="0"
     showgrid="false"
     fit-margin-top="0.5"
     fit-margin-left="0.5"
     fit-margin-right="0.5"
     fit-margin-bottom="0.5"
     inkscape:window-width="2560"
     inkscape:window-height="1377"
     inkscape:window-x="1912"
     inkscape:window-y="-8"
     inkscape:window-maximized="1" />
  <metadata
     id="metadata5">
    <rdf:RDF>
      <cc:Work
         rdf:about="">
        <dc:format>image/svg+xml</dc:format>
        <dc:type
           rdf:resource="http://purl.org/dc/dcmitype/StillImage" />
        <dc:title></dc:title>
      </cc:Work>
    </rdf:RDF>
  </metadata>
  <g
     inkscape:label="Layer 1"
     inkscape:groupmode="layer"
     id="layer1"
     transform="translate(-4.3203862,-5.6285131)">
    <text
       xml:space="preserve"
       style="font-style:normal;font-weight:normal;font-size:46.3948px;line-height:1.25;font-family:sans-serif;fill:#000000;fill-opacity:1;stroke:none;stroke-width:0.241639"
       x="98.350273"
       y="69.293571"
       id="text12"
       transform="scale(1.0195243,0.98084959)"><tspan
         id="tspan10"
         x="98.350273"
         y="69.293571"
         style="font-size:46.3948px;fill:#6356e0;fill-opacity:1;stroke-width:0.241639"
         sodipodi:role="line">Air 3550</tspan></text>
    <path
       d="m 57.887358,26.230243 2.207527,-0.892608 C 61.966484,24.579399 62.58075,23.398853 61.92809,21.7864 61.189049,19.953195 59.067907,19.74204 55.593454,21.152936 l -3.637619,1.478082 -8.474972,-5.086904 2.601037,-1.055773 c 1.737227,-0.700649 2.274711,-1.861999 1.63165,-3.464854 -0.748639,-1.842803 -2.322698,-2.255514 -4.750976,-1.276525 l -5.307658,2.159535 C 28.172158,8.1285413 22.624553,5.5754913 21.021698,6.2281503 c -0.739041,0.307134 -1.430092,0.940598 -2.053958,1.900391 -0.623866,0.959793 -0.78703,1.785216 -0.50869,2.4666687 0.278339,0.691051 1.919586,2.092349 4.933337,4.213492 3.013751,2.121144 7.879904,6.382626 14.588859,12.794045 6.708957,6.41142 10.394563,10.442552 11.066417,12.083797 0.422311,1.046175 -0.911803,2.265113 -4.021533,3.647216 -10.317779,4.261483 -17.545024,7.764727 -21.662537,10.509741 -0.700649,-0.239952 -2.668225,-1.382107 -5.873935,-3.426467 -3.215308,-2.034761 -5.317255,-3.167317 -6.296244,-3.388069 -0.998185,-0.230351 -2.4666693,0.048 -4.4342453,0.854217 -1.0461744,0.422305 -1.6988339,0.863816 -1.9387825,1.29572 0.5182887,1.276521 3.9351525,5.250069 10.2697888,11.920628 -0.182361,8.47497 0.134371,13.70585 0.940597,15.70222 0.479897,0.14397 1.247732,0.01 2.293906,-0.41271 1.967576,-0.80623 3.215308,-1.61246 3.752792,-2.43788 0.547083,-0.83502 1.266928,-3.10973 2.159535,-6.82413 0.892608,-3.7144 1.506876,-5.92192 1.842803,-6.58418 4.827761,-1.00778 10.193006,-2.67782 16.143723,-5.01012 5.941121,-2.322696 9.386778,-3.532038 10.336976,-3.589625 0.950193,-0.05761 1.554866,0.220751 1.804414,0.844617 0.652656,1.612459 0.806225,7.054468 0.479894,16.345278 -0.326329,9.2908 -0.844618,15.75981 -1.526071,19.36863 -0.681453,3.61842 -0.883011,5.76836 -0.604672,6.45941 0.278339,0.68145 0.969391,1.14215 2.082753,1.3821 1.113362,0.23994 2.044362,0.21115 2.793001,-0.096 1.612452,-0.65266 3.800781,-6.33464 6.593779,-17.04593 l 5.307657,-2.15954 c 2.428278,-0.98858 3.263296,-2.38988 2.514657,-4.22308 -0.652657,-1.61246 -1.842803,-2.05396 -3.580029,-1.35331 l -2.601038,1.05577 2.533856,-9.54995 3.637613,-1.47807 c 3.474453,-1.41091 4.837358,-3.04255 4.098318,-4.87576 -0.652657,-1.61245 -1.919584,-2.03475 -3.781585,-1.27652 l -2.207526,0.90221 4.539823,-13.917001 11.363955,-4.645401 c 9.722702,-3.944751 13.936201,-7.543977 12.611691,-10.788077 -0.51829,-1.276526 -2.898588,-1.53567 -7.150465,-0.758238 -4.242285,0.777433 -7.313625,1.545268 -9.21402,2.313103 l -11.402345,4.626203 z"
       id="path841"
       style="fill:#6356e0;fill-opacity:1;stroke-width:0.0959793" />
  </g>
</svg>
